HIERARCHY
ROOT Hips
{
	OFFSET 0.000000 0.000000 0.000000 
	CHANNELS 6 Xposition Yposition Zposition Zrotation Yrotation Xrotation
	JOINT LeftUpLeg
	{
		OFFSET 1.363060 -1.794630 0.839290 
		CHANNELS 3 Zrotation Yrotation Xrotation
		JOINT LeftLeg
		{
			OFFSET 2.448110 -6.726130 0.000000 
			CHANNELS 3 Zrotation Yrotation Xrotation
			JOINT LeftFoot
			{
				OFFSET 2.562200 -7.039590 0.000000 
				CHANNELS 3 Zrotation Yrotation Xrotation
				JOINT LeftToeBase
				{
					OFFSET 0.157640 -0.433110 2.322550 
					CHANNELS 3 Zrotation Yrotation Xrotation
					End Site
					{
						OFFSET 0.000000 0.000000 0.000000 
					}
				}
			}
		}
	}
	JOINT RightUpLeg
	{
		OFFSET -1.305520 -1.794630 0.839290 
		CHANNELS 3 Zrotation Yrotation Xrotation
		JOINT RightLeg
		{
			OFFSET -2.542530 -6.985550 0.000000 
			CHANNELS 3 Zrotation Yrotation Xrotation
			JOINT RightFoot
			{
				OFFSET -2.568260 -7.056230 0.000000 
				CHANNELS 3 Zrotation Yrotation Xrotation
				JOINT RightToeBase
				{
					OFFSET -0.164730 -0.452590 2.363150 
					CHANNELS 3 Zrotation Yrotation Xrotation
					End Site
					{
						OFFSET 0.000000 0.000000 0.000000 
					}
				}
			}
		}
	}
	JOINT Spine
	{
		OFFSET 0.028270 2.035590 -0.193380 
		CHANNELS 3 Zrotation Yrotation Xrotation
		JOINT Spine1
		{
			OFFSET 0.056720 2.048850 -0.042750 
			CHANNELS 3 Zrotation Yrotation Xrotation
			JOINT Neck1
			{
				OFFSET -0.054170 1.746240 0.172020 
				CHANNELS 3 Zrotation Yrotation Xrotation
				JOINT Head
				{
					OFFSET 0.104070 1.761360 -0.123970 
					CHANNELS 3 Zrotation Yrotation Xrotation
					End Site
					{
						OFFSET 0.000000 0.000000 0.000000 
					}
				}
			}
			JOINT LeftArm
			{
				OFFSET 3.362410 1.200890 -0.311210 
				CHANNELS 3 Zrotation Yrotation Xrotation
				JOINT LeftForeArm
				{
					OFFSET 4.983000 -0.000000 -0.000000 
					CHANNELS 3 Zrotation Yrotation Xrotation
					JOINT LeftHand
					{
						OFFSET 3.483560 -0.000000 -0.000000 
						CHANNELS 3 Zrotation Yrotation Xrotation
						JOINT LeftHandIndex1
						{
							OFFSET 0.715260 -0.000000 -0.000000 
							CHANNELS 3 Zrotation Yrotation Xrotation
							End Site
							{
								OFFSET 0.000000 0.000000 0.000000 
							}
						}
					}
				}
			}
			JOINT RightArm
			{
				OFFSET -3.136600 1.374050 -0.404650 
				CHANNELS 3 Zrotation Yrotation Xrotation
				JOINT RightForeArm
				{
					OFFSET -5.241900 -0.000000 -0.000000 
					CHANNELS 3 Zrotation Yrotation Xrotation
					JOINT RightHand
					{
						OFFSET -3.444170 -0.000000 -0.000000 
						CHANNELS 3 Zrotation Yrotation Xrotation
						JOINT RightHandIndex1
						{
							OFFSET -0.622530 -0.000000 -0.000000 
							CHANNELS 3 Zrotation Yrotation Xrotation
							End Site
							{
								OFFSET 0.000000 0.000000 0.000000 
							}
						}
					}
				}
			}
		}
	}
}
MOTION
Frames: 13
Frame Time: 0.041667
16.306652 20.466410 -9.240376 -168.179005 1.230623 -171.354704 -0.362541 10.095999 -21.727574 -0.968864 6.815520 14.869087 -0.941865 17.650748 36.477940 0.563700 4.808900 13.364400 -7.300768 2.003303 -28.150424 -23.291427 -22.013403 84.681859 4.373981 -22.040568 28.253454 -2.525100 -9.883400 28.599900 2.897895 -7.018009 -5.485719 1.988841 -3.540059 -9.094997 12.127435 -12.973398 1.071006 1.883100 -6.244900 4.301900 3.567170 -1.316078 17.326955 5.701391 -14.081716 -7.035717 -23.536783 7.159540 30.862547 -7.125000 0.000000 0.000000 -17.574423 -4.767608 -13.433784 -5.816093 10.639073 -6.087028 13.822545 -15.947653 27.549587 7.125000 0.000000 0.000000 
16.257773 20.545260 -9.244364 -168.140725 0.836088 -171.439872 -0.192398 9.847048 -21.394597 -1.164354 6.428235 13.893300 -0.656992 17.725371 37.584903 0.543500 4.723400 13.121200 -7.448453 2.253273 -30.077492 -24.710980 -22.016692 90.096706 4.331374 -20.874856 26.410160 -2.625300 -10.062300 29.178600 2.857830 -7.193358 -5.501910 1.823724 -3.677266 -9.148671 12.049448 -12.996697 0.954554 1.864100 -6.266400 4.300800 3.682164 -1.235267 17.533282 5.799447 -14.123324 -7.123250 -23.575746 7.143552 30.852171 -7.125000 0.000000 0.000000 -18.128895 -4.688495 -13.779053 -6.236157 10.966819 -6.426466 13.899630 -15.932571 27.065508 7.125000 0.000000 0.000000 
16.211466 20.617679 -9.248609 -168.125848 0.504661 -171.516093 -0.067560 9.669924 -21.118284 -1.350889 6.065601 12.996146 -0.327738 17.683497 38.636730 0.522600 4.633200 12.865200 -7.637060 2.486053 -32.049141 -26.001429 -21.884504 95.227800 4.127478 -19.433780 24.856046 -2.686000 -10.168600 29.524300 2.810128 -7.340494 -5.515218 1.653335 -3.794623 -9.206811 11.967114 -12.997038 0.839854 1.852700 -6.276000 4.299100 3.791162 -1.167782 17.747706 5.904455 -14.172851 -7.212029 -23.572643 7.178274 30.841550 -7.125000 0.000000 0.000000 -18.677733 -4.613326 -14.140614 -6.673034 11.308458 -6.781738 13.965461 -15.874293 26.530283 7.125000 0.000000 0.000000 
16.166574 20.683151 -9.253368 -168.137339 0.225333 -171.587429 0.007665 9.560308 -20.894326 -1.528323 5.727789 12.177669 0.032076 17.539492 39.622487 0.498500 4.526600 12.563000 -7.858628 2.704711 -34.052714 -27.164146 -21.641720 100.053939 3.800934 -17.754437 23.523757 -2.711700 -10.213100 29.669500 2.755651 -7.458637 -5.525319 1.473789 -3.892371 -9.269982 11.881048 -12.983281 0.726447 1.849900 -6.278400 4.297200 3.888519 -1.120368 17.962242 6.017335 -14.231908 -7.302041 -23.555237 7.215081 30.838801 -7.125000 0.000000 0.000000 -19.223712 -4.541912 -14.552388 -7.126146 11.662650 -7.151650 14.018353 -15.781988 25.972792 7.125000 0.000000 0.000000 
16.122969 20.741292 -9.258770 -168.180773 -0.009271 -171.660594 0.028058 9.514605 -20.715348 -1.696748 5.414508 11.436411 0.407631 17.309912 40.528574 0.477600 4.432100 12.295500 -8.102953 2.907070 -36.079229 -28.207343 -21.313192 104.558136 3.392856 -15.914985 22.363229 -2.702300 -10.196800 29.616500 2.693563 -7.562340 -5.533205 1.284715 -3.975893 -9.336452 11.765331 -12.946048 0.629835 1.831900 -6.268400 4.297800 3.982967 -1.079236 18.177528 6.137813 -14.296854 -7.394894 -23.516469 7.269780 30.837250 -7.125000 0.000000 0.000000 -19.759248 -4.458792 -15.045088 -7.593670 12.033183 -7.536227 14.039831 -15.641598 25.423783 7.125000 0.000000 0.000000 
16.080135 20.791586 -9.265330 -168.263907 -0.209732 -171.739346 -0.012540 9.533605 -20.576869 -1.856953 5.125262 10.768863 0.789458 17.007566 41.350903 0.464800 4.373200 12.129100 -8.360208 3.097518 -38.115685 -29.141931 -20.921604 108.730787 2.944556 -14.010477 21.329812 -2.661200 -10.125300 29.383400 2.625170 -7.654470 -5.538857 1.096604 -4.046475 -9.405483 11.625078 -12.886484 0.545834 1.806200 -6.247300 4.299100 4.065965 -1.049565 18.385783 6.264768 -14.369122 -7.488975 -23.466031 7.323902 30.833790 -7.125000 0.000000 0.000000 -20.286425 -4.367935 -15.595388 -8.086630 12.429766 -7.944289 14.032172 -15.436875 24.853465 7.125000 0.000000 0.000000 
16.037816 20.834163 -9.273177 -168.394477 -0.386822 -171.831465 -0.116852 9.610832 -20.468234 -2.009159 4.859737 10.168595 1.163574 16.657314 42.083071 0.449500 4.301400 11.926100 -8.625308 3.291257 -40.146144 -29.977527 -20.490106 112.560610 2.490858 -12.131719 20.396491 -2.600000 -10.017500 29.033500 2.550002 -7.745903 -5.542242 0.904314 -4.109428 -9.474654 11.450174 -12.795658 0.481876 1.759500 -6.209900 4.302200 4.145416 -1.023803 18.571984 6.396275 -14.444096 -7.584309 -23.403972 7.381009 30.830265 -7.125000 0.000000 0.000000 -20.802813 -4.256712 -16.235228 -8.596067 12.848837 -8.369486 13.997586 -15.186066 24.279970 7.125000 0.000000 0.000000 
15.995754 20.869021 -9.282695 -168.576940 -0.550492 -171.939977 -0.287175 9.742592 -20.382941 -2.154145 4.617001 9.627474 1.520592 16.277858 42.722081 0.434400 4.229200 11.722500 -8.885650 3.486096 -42.162149 -30.721084 -20.038485 116.036623 2.056008 -10.352173 19.564798 -2.523100 -9.879800 28.588500 2.470150 -7.831153 -5.542924 0.714027 -4.163216 -9.542524 11.251971 -12.687988 0.442434 1.702000 -6.162900 4.315300 4.210735 -1.015522 18.733612 6.532766 -14.525485 -7.680180 -23.356974 7.404412 30.833828 -7.125000 0.000000 0.000000 -21.314083 -4.132177 -16.976760 -9.123277 13.288798 -8.810161 13.939123 -14.893116 23.706972 7.125000 0.000000 0.000000 
15.953564 20.896291 -9.294015 -168.815926 -0.712217 -172.069974 -0.524247 9.924968 -20.312275 -2.292881 4.394821 9.138139 1.857101 15.877639 43.269418 0.426200 4.189800 11.611200 -9.124555 3.701946 -44.146204 -31.379719 -19.586957 119.151926 1.666858 -8.758297 18.839218 -2.436700 -9.721900 28.080700 2.385615 -7.916844 -5.540773 0.527038 -4.211790 -9.608364 11.032980 -12.560971 0.427645 1.633700 -6.104700 4.338700 4.268252 -1.020307 18.861112 6.668379 -14.607227 -7.772917 -23.317031 7.425713 30.857914 -7.125000 0.000000 0.000000 -21.822215 -3.991489 -17.796713 -9.664164 13.747348 -9.261238 13.859384 -14.566105 23.094146 7.125000 0.000000 0.000000 
15.911502 20.915971 -9.307264 -169.112300 -0.881497 -172.224787 -0.829155 10.158915 -20.253327 -2.426140 4.190999 8.695626 2.174393 15.455379 43.729525 0.419700 4.158200 11.522100 -9.325135 3.965387 -46.078490 -31.954043 -19.156497 121.895423 1.335541 -7.389766 18.230919 -2.353300 -9.566200 27.583100 2.297506 -7.998833 -5.536207 0.342372 -4.254649 -9.675682 10.802641 -12.425983 0.434870 1.562400 -6.041500 4.372100 4.309779 -1.050278 18.962861 6.808191 -14.696236 -7.863492 -23.278941 7.426737 30.879470 -7.125000 0.000000 0.000000 -22.332846 -3.845328 -18.641452 -10.222009 14.224239 -9.723516 13.795949 -14.212890 22.396639 7.125000 0.000000 0.000000 
15.869440 20.928448 -9.322313 -169.463732 -1.071615 -172.406796 -1.195029 10.430395 -20.195820 -2.553673 4.003768 8.294472 2.467907 15.021870 44.102882 0.414900 4.134400 11.455200 -9.464511 4.299489 -47.940310 -32.443566 -18.767667 124.258613 1.065360 -6.257601 17.751818 -2.276400 -9.419500 27.116500 2.206608 -8.088483 -5.529577 0.162405 -4.296329 -9.745058 10.555731 -12.272520 0.459772 1.482000 -5.968600 4.409200 4.342817 -1.095918 19.047814 6.950234 -14.788775 -7.951516 -23.244081 7.415421 30.896648 -7.125000 0.000000 0.000000 -22.846088 -3.685134 -19.515812 -10.792664 14.718825 -10.191641 13.742148 -13.825037 21.606686 7.125000 0.000000 0.000000 
15.827506 20.934237 -9.339164 -169.860927 -1.292752 -172.609780 -1.614417 10.744366 -20.142850 -2.673984 3.830264 7.931958 2.741631 14.573033 44.399958 0.417900 4.149200 11.496700 -9.501883 4.754708 -49.714965 -32.846833 -18.442420 126.228960 0.866684 -5.395946 17.407125 -2.201500 -9.273700 26.655300 2.114169 -8.183601 -5.521434 -0.014970 -4.338429 -9.817914 10.314120 -12.110311 0.496249 1.407600 -5.890100 4.451000 4.364492 -1.164124 19.109517 7.095350 -14.886365 -8.036698 -23.221885 7.372309 30.928516 -7.125000 0.000000 0.000000 -23.375438 -3.522547 -20.355301 -11.379982 15.227837 -10.660968 13.723729 -13.379637 20.634479 7.125000 0.000000 0.000000 
15.785573 20.933336 -9.357687 -170.297203 -1.552538 -172.832491 -2.082188 11.092980 -20.090925 -2.786413 3.670170 7.608342 2.993866 14.113042 44.622028 0.429000 4.203300 11.649400 -9.423137 5.369706 -51.385972 -33.163269 -18.200080 127.799528 0.733624 -4.780419 17.193296 -2.131200 -9.134200 26.216100 2.021143 -8.286866 -5.512479 -0.190600 -4.383017 -9.894228 10.080311 -11.939950 0.541039 1.341600 -5.806500 4.497200 4.371279 -1.253911 19.150050 7.243621 -14.991298 -8.119334 -23.173446 7.351666 30.965001 -7.125000 0.000000 0.000000 -23.923562 -3.360305 -21.138666 -11.989378 15.753787 -11.131785 13.727153 -12.855522 19.445306 7.125000 0.000000 0.000000 
